<svg width="1692" height="512" viewBox="0 0 1692 512" fill="none" xmlns="http://www.w3.org/2000/svg">
<g clip-path="url(#clip0_413_2275)">
<path fill-rule="evenodd" clip-rule="evenodd" d="M478.247 209.545C484.064 192.309 486.081 174.047 484.165 155.98C482.249 137.913 476.444 120.458 467.137 104.784C453.342 81.0756 432.269 62.305 406.96 51.1805C381.652 40.056 353.415 37.1529 326.325 42.89C314.107 29.3029 299.087 18.4479 282.273 11.0515C265.458 3.6552 247.236 -0.111857 228.827 0.00252901C201.13 -0.0633998 174.127 8.55088 151.712 24.6034C129.296 40.6559 112.627 63.3173 104.106 89.3203C86.0629 92.9645 69.017 100.37 54.1094 111.041C39.2017 121.711 26.7764 135.401 17.665 151.194C3.75924 174.836 -2.17659 202.225 0.713641 229.411C3.60387 256.597 15.1708 282.175 33.7461 302.455C27.9299 319.691 25.9123 337.953 27.8282 356.02C29.7441 374.087 35.5494 391.542 44.8555 407.217C58.6526 430.923 79.7255 449.693 105.034 460.817C130.343 471.941 158.578 474.845 185.668 469.11C197.887 482.697 212.906 493.552 229.72 500.948C246.535 508.345 264.757 512.112 283.166 511.997C310.877 512.069 337.894 503.451 360.318 487.388C382.742 471.325 399.415 448.648 407.929 422.629C425.972 418.985 443.018 411.58 457.926 400.909C472.833 390.238 485.258 376.548 494.37 360.756C508.258 337.115 514.18 309.733 511.282 282.558C508.385 255.383 496.817 229.817 478.247 209.545ZM330.726 393.222L380.359 364.71V382.578C380.327 408 370.084 432.372 351.874 450.356C333.664 468.341 308.973 478.471 283.208 478.527C260.461 478.559 238.427 470.698 220.96 456.321C221.747 455.898 223.129 455.15 224.029 454.606L327.349 395.72C328.582 395.027 329.716 394.187 330.726 393.222ZM169.064 386.878L65.7446 327.992C65.0167 327.58 64.0721 327.017 63.3231 326.57L63.3123 326.564C63.076 326.423 62.8594 326.294 62.6757 326.185C58.7758 348.296 62.8823 371.057 74.2762 390.482C87.1919 412.497 108.431 428.558 133.334 435.141C158.237 441.724 184.769 438.291 207.109 425.596L222.434 416.866L173.192 388.579C171.752 388.198 170.363 387.627 169.064 386.878ZM82.685 298.953L99.2 308.368V254.172C98.1741 251.974 97.6461 249.575 97.6613 247.142V129.371C97.6613 128.804 97.6754 128.106 97.6888 127.444V127.444V127.443V127.443V127.443L97.6888 127.442L97.6889 127.441C97.7009 126.843 97.7124 126.275 97.7124 125.858C76.3588 133.585 58.4406 148.478 47.0959 167.928C34.2422 189.968 30.7705 216.138 37.4419 240.699C44.1134 265.261 60.3835 286.21 82.685 298.953ZM412.8 203.519V257.781C413.82 259.979 414.342 262.377 414.322 264.806V386.1C431.663 379.797 446.826 368.75 458.034 354.251C469.243 339.753 476.033 322.404 477.61 304.236C479.186 286.067 475.485 267.832 466.938 251.664C458.391 235.497 445.352 222.066 429.349 212.946L412.8 203.519ZM342.969 125.071C341.607 124.287 340.145 123.699 338.63 123.319L289.577 95.14L304.926 86.4032C320.927 77.2997 339.224 72.8803 357.677 73.6621C376.131 74.4438 393.977 80.3943 409.128 90.8174C424.279 101.241 436.109 115.705 443.233 132.52C450.358 149.334 452.482 167.802 449.358 185.764C448.592 185.299 447.251 184.502 446.29 183.957L342.969 125.071ZM184.675 116.29C183.466 116.969 182.351 117.79 181.355 118.732L131.583 147.323V129.371C131.596 111.141 136.87 93.2921 146.79 77.9128C156.709 62.5335 170.864 50.2603 187.596 42.5299C204.328 34.7994 222.946 31.9315 241.27 34.2619C259.594 36.5923 276.866 44.0244 291.064 55.6885C290.277 56.1125 288.906 56.8595 287.995 57.4046L184.675 116.29ZM380.998 184.194L255.999 112.388L131 184.194V327.806H131.002L256.001 399.612L381 327.806L380.998 327.806L380.998 184.194Z" fill="#37C078"/>
<rect x="97.6602" y="200" width="33.34" height="131" fill="#37C078"/>
<rect x="381" y="198" width="33.32" height="131" fill="#37C078"/>
<rect x="239" y="96" width="33" height="95" fill="#37C078"/>
<rect x="239" y="334" width="33" height="72" fill="#37C078"/>
<path fill-rule="evenodd" clip-rule="evenodd" d="M177.507 175.987C176.043 176.521 175 177.911 175 179.543V192.312C175 194.265 176.477 195.956 178.449 196.133C192.879 197.439 203.783 206.998 203.783 218.741V297.13C203.783 307.696 195.091 316.081 183.024 317.229C181.311 317.394 179.889 318.596 179.568 320.269L177.12 333.159C176.681 335.46 178.474 337.592 180.848 337.592H217.607L241.499 337.5L282.538 337.658V337.592H299.824C324.225 337.592 344 316.65 344 290.814C344.024 274.686 336.33 260.477 324.614 252.066C330.356 244.064 333.781 234.047 333.781 223.165C333.781 198.581 316.343 178.366 294.023 175.987H177.507ZM241.576 206.093H272.949C284.622 206.093 294.079 215.431 294.079 226.956C294.079 238.479 284.622 247.817 272.949 247.817H241.576V206.093ZM283.193 308.506H241.576V266.783H283.193C294.866 266.783 304.323 276.12 304.323 287.644C304.323 299.167 294.866 308.506 283.193 308.506Z" fill="#37C078"/>
</g>
<path d="M680.125 206.625C674.292 206.625 669.083 207.875 664.5 210.375C659.917 212.792 656 216.333 652.75 221C649.5 225.667 647 231.375 645.25 238.125C643.583 244.792 642.75 252.375 642.75 260.875C642.75 272.375 644.208 282.042 647.125 289.875C650.042 297.708 654.458 303.625 660.375 307.625C666.375 311.625 673.875 313.625 682.875 313.625C691.042 313.625 698.875 312.5 706.375 310.25C713.958 308 721.583 305.292 729.25 302.125V343.875C721.167 347.458 712.875 350.042 704.375 351.625C695.958 353.208 687 354 677.5 354C657.667 354 641.417 350.083 628.75 342.25C616.167 334.333 606.875 323.375 600.875 309.375C594.958 295.375 592 279.125 592 260.625C592 246.792 593.917 234.125 597.75 222.625C601.667 211.125 607.375 201.167 614.875 192.75C622.375 184.25 631.625 177.708 642.625 173.125C653.708 168.458 666.375 166.125 680.625 166.125C689.458 166.125 698.75 167.167 708.5 169.25C718.333 171.25 727.917 174.5 737.25 179L722.125 217.875C715.458 214.708 708.708 212.042 701.875 209.875C695.042 207.708 687.792 206.625 680.125 206.625Z" fill="#37C078"/>
<path d="M811 157V184.625C811 195.125 810.75 203.958 810.25 211.125C809.833 218.208 809.417 223.625 809 227.375H811.25C814.333 222.458 817.833 218.542 821.75 215.625C825.667 212.708 830 210.625 834.75 209.375C839.5 208.042 844.667 207.375 850.25 207.375C859.583 207.375 868 209.167 875.5 212.75C883.083 216.333 889.125 221.958 893.625 229.625C898.125 237.208 900.375 247.125 900.375 259.375V351.5H851.25V274.25C851.25 264.833 849.875 257.75 847.125 253C844.375 248.167 840.125 245.75 834.375 245.75C828.458 245.75 823.792 247.458 820.375 250.875C816.958 254.208 814.542 259.125 813.125 265.625C811.708 272.042 811 279.917 811 289.25V351.5H762.125V157H811Z" fill="#37C078"/>
<path d="M1002.75 207.375C1020.67 207.375 1034.67 211.833 1044.75 220.75C1054.83 229.583 1059.88 242.208 1059.88 258.625V351.5H1026L1016.62 332.75H1015.62C1011.62 337.75 1007.5 341.833 1003.25 345C999.083 348.083 994.292 350.333 988.875 351.75C983.458 353.25 976.833 354 969 354C960.833 354 953.5 352.333 947 349C940.5 345.667 935.375 340.625 931.625 333.875C927.875 327.125 926 318.583 926 308.25C926 293.083 931.25 281.833 941.75 274.5C952.25 267.167 967.458 263.042 987.375 262.125L1011 261.375V259.375C1011 253.042 1009.42 248.542 1006.25 245.875C1003.17 243.208 999 241.875 993.75 241.875C988.167 241.875 981.917 242.875 975 244.875C968.167 246.792 961.292 249.292 954.375 252.375L940.25 220.125C948.417 215.958 957.667 212.792 968 210.625C978.333 208.458 989.917 207.375 1002.75 207.375ZM1011.25 288.25L1000 288.75C991 289.083 984.667 290.667 981 293.5C977.417 296.25 975.625 300.208 975.625 305.375C975.625 310.208 976.917 313.792 979.5 316.125C982.083 318.375 985.5 319.5 989.75 319.5C995.667 319.5 1000.71 317.625 1004.88 313.875C1009.12 310.125 1011.25 305.25 1011.25 299.25V288.25Z" fill="#37C078"/>
<path d="M1162.5 315.375C1166.92 315.375 1170.96 314.917 1174.62 314C1178.29 313.083 1182.12 311.917 1186.12 310.5V346.125C1180.79 348.458 1175.12 350.333 1169.12 351.75C1163.21 353.25 1155.62 354 1146.38 354C1137.21 354 1129.12 352.583 1122.12 349.75C1115.12 346.833 1109.67 341.833 1105.75 334.75C1101.92 327.583 1100 317.625 1100 304.875V246.5H1082.88V226.625L1104.62 211.25L1117.25 181.5H1149.25V209.875H1184V246.5H1149.25V301.625C1149.25 306.208 1150.42 309.667 1152.75 312C1155.08 314.25 1158.33 315.375 1162.5 315.375Z" fill="#37C078"/>
<path d="M1213.75 168.75H1277.5C1303.92 168.75 1322.75 172.667 1334 180.5C1345.25 188.333 1350.88 199.583 1350.88 214.25C1350.88 222.25 1349.42 229.042 1346.5 234.625C1343.67 240.208 1340.04 244.625 1335.62 247.875C1331.29 251.125 1326.83 253.333 1322.25 254.5V255.75C1327.25 257 1332.21 259.083 1337.12 262C1342.12 264.833 1346.25 269.125 1349.5 274.875C1352.83 280.542 1354.5 288.25 1354.5 298C1354.5 309.083 1351.67 318.625 1346 326.625C1340.42 334.625 1332.42 340.792 1322 345.125C1311.58 349.375 1299.21 351.5 1284.88 351.5H1213.75V168.75ZM1263.12 238.875H1278C1286.17 238.875 1291.92 237.208 1295.25 233.875C1298.58 230.458 1300.25 226.333 1300.25 221.5C1300.25 216.5 1298.33 212.708 1294.5 210.125C1290.75 207.458 1284.92 206.125 1277 206.125H1263.12V238.875ZM1263.12 275V313.375H1280.5C1289.08 313.375 1295.08 311.542 1298.5 307.875C1301.92 304.125 1303.62 299.458 1303.62 293.875C1303.62 290.625 1302.88 287.583 1301.38 284.75C1299.96 281.833 1297.5 279.5 1294 277.75C1290.5 275.917 1285.67 275 1279.5 275H1263.12Z" fill="#37C078"/>
<path d="M1505.75 296C1505.75 305.917 1503.25 315.333 1498.25 324.25C1493.25 333.083 1485.46 340.25 1474.88 345.75C1464.38 351.25 1450.79 354 1434.12 354C1425.79 354 1418.46 353.625 1412.12 352.875C1405.88 352.125 1400.04 350.917 1394.62 349.25C1389.21 347.5 1383.58 345.25 1377.75 342.5V298.5C1387.67 303.5 1397.67 307.333 1407.75 310C1417.83 312.583 1426.96 313.875 1435.12 313.875C1440.04 313.875 1444.04 313.292 1447.12 312.125C1450.29 310.958 1452.62 309.375 1454.12 307.375C1455.62 305.292 1456.38 302.917 1456.38 300.25C1456.38 297.083 1455.25 294.417 1453 292.25C1450.83 290 1447.33 287.667 1442.5 285.25C1437.67 282.833 1431.29 279.833 1423.38 276.25C1416.62 273.083 1410.5 269.833 1405 266.5C1399.58 263.167 1394.92 259.375 1391 255.125C1387.17 250.792 1384.21 245.75 1382.12 240C1380.04 234.25 1379 227.458 1379 219.625C1379 207.875 1381.88 198.042 1387.62 190.125C1393.46 182.125 1401.54 176.125 1411.88 172.125C1422.29 168.125 1434.29 166.125 1447.88 166.125C1459.79 166.125 1470.5 167.458 1480 170.125C1489.58 172.792 1498.17 175.833 1505.75 179.25L1490.62 217.375C1482.79 213.792 1475.08 210.958 1467.5 208.875C1459.92 206.708 1452.88 205.625 1446.38 205.625C1442.12 205.625 1438.62 206.167 1435.88 207.25C1433.21 208.25 1431.21 209.625 1429.88 211.375C1428.62 213.125 1428 215.125 1428 217.375C1428 220.208 1429.08 222.75 1431.25 225C1433.5 227.25 1437.21 229.708 1442.38 232.375C1447.62 234.958 1454.75 238.333 1463.75 242.5C1472.67 246.5 1480.25 250.833 1486.5 255.5C1492.75 260.083 1497.5 265.625 1500.75 272.125C1504.08 278.542 1505.75 286.5 1505.75 296Z" fill="#37C078"/>
<path d="M1691.88 168.75L1632 351.5H1573.88L1514.25 168.75H1569.75L1594.62 261.375C1595.54 264.875 1596.58 269.375 1597.75 274.875C1599 280.292 1600.12 285.708 1601.12 291.125C1602.21 296.542 1602.88 300.958 1603.12 304.375C1603.46 300.958 1604.08 296.583 1605 291.25C1605.92 285.917 1606.92 280.583 1608 275.25C1609.17 269.833 1610.25 265.375 1611.25 261.875L1636.62 168.75H1691.88Z" fill="#37C078"/>
<defs>
<clipPath id="clip0_413_2275">
<rect width="512" height="512" fill="white"/>
</clipPath>
</defs>
</svg>
