<svg width="107" height="107" viewBox="0 0 107 107" fill="none" xmlns="http://www.w3.org/2000/svg">
<g clip-path="url(#clip0_707_2571)">
<path d="M53.0589 106.117C43.4588 106.116 34.0387 103.511 25.8025 98.578C17.5662 93.646 10.8222 86.572 6.28892 78.11C1.75572 69.647 -0.396976 60.1135 0.0602241 50.5242C0.517524 40.9349 3.56752 31.6493 8.88532 23.6566C14.5342 15.1854 22.4927 8.5107 31.8181 4.4231L35.8565 20.8269L35.9448 20.7846C28.7215 24.6421 22.9861 30.7921 19.6415 38.2667C16.2969 45.7413 15.533 54.1159 17.47 62.0723C19.4071 70.029 23.935 77.115 30.3412 82.216C36.7474 87.316 44.6679 90.142 52.856 90.247L56.6948 105.995C55.4857 106.075 54.2634 106.117 53.0589 106.117ZM74.605 101.56L70.786 85.918C76.589 82.804 81.452 78.192 84.869 72.562C88.286 66.932 90.132 60.4895 90.216 53.9043L71.051 58.5853C70.151 61.6454 68.476 64.421 66.189 66.645C63.8346 68.922 60.9062 70.517 57.7162 71.259C56.2724 71.615 54.791 71.795 53.3041 71.796C50.5648 71.799 47.8592 71.191 45.3839 70.018C42.9087 68.844 40.726 67.134 38.9945 65.011C37.2629 62.8882 36.026 60.4064 35.3735 57.7459C34.7211 55.0854 34.6695 52.3129 35.2226 49.6299C35.7757 46.947 36.9195 44.4209 38.5709 42.2353C40.2224 40.0497 42.34 38.2594 44.7698 36.9946C47.1997 35.7297 49.8809 35.0221 52.6184 34.923C55.356 34.824 58.0813 35.336 60.5962 36.422C62.869 37.4021 64.923 38.8271 66.636 40.613L85.801 35.932C82.673 30.1112 78.039 25.2373 72.384 21.8191C66.728 18.401 60.2587 16.564 53.6508 16.5002L53.74 16.4579L49.7164 0.1036C50.8313 0.0346996 51.9559 0 53.0589 0C62.6451 0.0016 72.052 2.5997 80.28 7.5185C88.508 12.4373 95.25 19.493 99.789 27.936C104.329 36.3791 106.497 45.8941 106.063 55.4705C105.629 65.047 102.609 74.327 97.324 82.324C91.733 90.765 83.853 97.438 74.606 101.561L74.605 101.56Z" fill="white"/>
</g>
<defs>
<clipPath id="clip0_707_2571">
<rect width="107" height="107" fill="white"/>
</clipPath>
</defs>
</svg>
