<svg enable-background="new 0 0 32 32" height="512" viewBox="0 0 32 32" width="512" xmlns="http://www.w3.org/2000/svg"><g id="Layer_1"><g><path d="m26.959 1h-21.918c-2.2285 0-4.041 1.813-4.041 4.0415v21.917c0 2.2285 1.8125 4.0415 4.041 4.0415h21.918c2.2285 0 4.041-1.813 4.041-4.0415v-21.917c0-2.2285-1.8125-4.0415-4.041-4.0415zm2.041 25.9585c0 1.1255-.916 2.0415-2.041 2.0415h-21.918c-1.125 0-2.041-.916-2.041-2.0415v-21.917c0-1.1255.916-2.0415 2.041-2.0415h21.918c1.125 0 2.041.916 2.041 2.0415z"/><path d="m16.707 19.5356-2.1211 2.1211c-1.1699 1.1689-3.0732 1.1709-4.2432 0-1.1689-1.1699-1.1689-3.0728 0-4.2427l2.1221-2.1211c.3906-.3901.3906-1.0234 0-1.4141s-1.0234-.3906-1.4141 0l-2.122 2.1212c-1.9492 1.9492-1.9492 5.1216 0 7.0708.9746.9751 2.2549 1.4624 3.5352 1.4624 1.2813 0 2.5615-.4873 3.5361-1.4624l2.1211-2.1211c.3906-.3906.3906-1.0234 0-1.4141s-1.0234-.3906-1.4141 0z"/><path d="m16 8.9292-2.1211 2.1211c-.3906.3906-.3906 1.0234 0 1.4141s1.0234.3906 1.4141 0l2.1211-2.1211c1.1689-1.1689 3.0723-1.1709 4.2432 0 1.1689 1.1699 1.1689 3.0728 0 4.2427l-2.1221 2.1211c-.3906.3901-.3906 1.0234 0 1.4141.1953.1953.4512.293.707.293s.5117-.0977.707-.293l2.1221-2.1212c1.9492-1.9492 1.9492-5.1216 0-7.0708-1.9502-1.9507-5.1231-1.9497-7.0713 0z"/><path d="m17.4141 13.1719-4.2422 4.2422c-.3906.3906-.3906 1.0234 0 1.4141.1953.1953.4512.293.707.293s.5117-.0977.707-.293l4.2422-4.2422c.3906-.3906.3906-1.0234 0-1.4141s-1.0234-.3906-1.414 0z"/></g></g></svg>